# xmcd
#
# Track frame offsets:
# 150
# 11515
# 23967
# 41337
# 54632
# 71722
# 85387
# 97902
# 116625
# 130067
# 145370
#
# Disc length: 2120 seconds
#
#
# Revision: 3
# Processed by: cddbd v1.5.2PL0 Copyright (c) Steve Scherf et al.
# Submitted via: FreeRIP 2.90 
#
DISCID=9208460b
DTITLE=Tim McGraw - Not A Moment Too Soon
DYEAR=1994
DGENRE=Country
TTITLE0=It Doesnt Get Any Countrier Than This
TTITLE1=Give It To Me Straight
TTITLE2=Woudln't Want It Any Other Way
TTITLE3=Down On The Farm
TTITLE4=Not A Moment Too Soon
TTITLE5=Indian Outlaw
TTITLE6=Refried Dreams
TTITLE7=Don't Take The Girl
TTITLE8=40 Days And 40 Nights
TTITLE9=Ain't That Just Like A Dream
TTITLE10=Indian Outlaw
EXTD=
EXTT0=
EXTT1=
EXTT2=
EXTT3=
EXTT4=
EXTT5=
EXTT6=
EXTT7=
EXTT8=
EXTT9=
EXTT10=
PLAYORDER=
